<svg width="90" height="90" xmlns="http://www.w3.org/2000/svg"><g fill="none" fill-rule="evenodd"><path fill="#FFF" d="M0 0h90v90H0z"/><path d="M88 18.886a33.735 33.735 0 01-9.663 2.652c3.473-2.082 6.144-5.38 7.397-9.308a33.732 33.732 0 01-10.683 4.082A16.79 16.79 0 0062.769 11c-9.29 0-16.821 7.53-16.821 16.82 0 1.32.148 2.602.438 3.835-13.982-.7-26.383-7.397-34.679-17.574a16.704 16.704 0 00-2.278 8.453c0 5.838 2.972 10.986 7.484 14.006a16.777 16.777 0 01-7.618-2.106v.208c0 8.157 5.799 14.956 13.497 16.497a16.75 16.75 0 01-7.6.293c2.142 6.685 8.356 11.55 15.718 11.683a33.72 33.72 0 01-20.893 7.204c-1.36 0-2.699-.088-4.017-.237a47.625 47.625 0 0025.792 7.556c30.943 0 47.868-25.636 47.868-47.868 0-.729-.019-1.45-.046-2.177A34.497 34.497 0 0088 18.886z" fill="#000"/></g></svg>