<svg width="90" height="90" xmlns="http://www.w3.org/2000/svg"><g fill="none" fill-rule="evenodd"><path fill="#FFF" d="M0 0h90v90H0z"/><g fill="#0A0B09"><path d="M44.988 7.024c-10.317 0-11.61.044-15.662.229-4.044.184-6.805.826-9.222 1.765-2.498.971-4.616 2.27-6.728 4.382-2.112 2.112-3.41 4.23-4.382 6.728-.939 2.417-1.581 5.178-1.765 9.222C7.044 33.4 7 34.695 7 45.012s.044 11.61.229 15.662c.184 4.044.826 6.805 1.765 9.222.971 2.498 2.27 4.616 4.382 6.728 2.112 2.112 4.23 3.41 6.728 4.382 2.417.939 5.178 1.581 9.222 1.765 4.051.185 5.345.229 15.662.229s11.61-.044 15.662-.229c4.044-.184 6.805-.826 9.222-1.765 2.498-.971 4.616-2.27 6.728-4.382 2.112-2.112 3.411-4.23 4.382-6.728.939-2.417 1.581-5.178 1.765-9.222.185-4.051.229-5.345.229-15.662s-.044-11.61-.229-15.662c-.184-4.044-.826-6.805-1.765-9.222-.971-2.498-2.27-4.616-4.382-6.728-2.112-2.112-4.23-3.411-6.728-4.382-2.417-.939-5.178-1.581-9.222-1.765-4.051-.185-5.345-.229-15.662-.229zm0 6.845c10.143 0 11.345.038 15.35.221 3.704.17 5.716.788 7.054 1.308 1.773.69 3.039 1.512 4.368 2.842 1.33 1.33 2.153 2.595 2.842 4.368.52 1.338 1.139 3.35 1.308 7.054.183 4.005.221 5.207.221 15.35s-.038 11.345-.221 15.35c-.17 3.704-.788 5.716-1.308 7.054-.69 1.773-1.512 3.039-2.842 4.368-1.33 1.33-2.595 2.153-4.368 2.842-1.338.52-3.35 1.139-7.054 1.308-4.005.183-5.206.221-15.35.221-10.144 0-11.345-.038-15.35-.221-3.704-.17-5.716-.788-7.054-1.308-1.773-.69-3.039-1.512-4.368-2.842-1.33-1.33-2.153-2.595-2.842-4.368-.52-1.338-1.139-3.35-1.308-7.054-.183-4.005-.221-5.207-.221-15.35s.038-11.345.221-15.35c.17-3.704.788-5.716 1.308-7.054.69-1.773 1.512-3.039 2.842-4.368 1.33-1.33 2.595-2.153 4.368-2.842 1.338-.52 3.35-1.139 7.054-1.308 4.005-.183 5.207-.221 15.35-.221z"/><path d="M44.988 57.675c-6.993 0-12.663-5.67-12.663-12.663s5.67-12.663 12.663-12.663 12.663 5.67 12.663 12.663-5.67 12.663-12.663 12.663zm0-32.17c-10.774 0-19.507 8.733-19.507 19.507 0 10.774 8.733 19.507 19.507 19.507 10.774 0 19.507-8.733 19.507-19.507 0-10.774-8.733-19.507-19.507-19.507zm24.837-.771a4.559 4.559 0 11-9.117 0 4.559 4.559 0 019.117 0"/></g></g></svg>